# xmcd CD database file
#
# Track frame offsets:
#	150
#	55845
#	121531
#	157036
#	214494
#	257780
#
# Disc length: 3993 seconds
#
# Revision: 0
# Processed by: cddbd v1.5.2PL0 Copyright (c) Steve Scherf et al.
# Submitted via: CDex 1.70beta3
#
DISCID=510f9706
DTITLE=Wadada Leo Smith - Jamie Saft - Joe Morris - Balazs Pandi - Red Hill
DYEAR=2014
DGENRE=Jazz
TTITLE0=Gneiss
TTITLE1=Janus Face
TTITLE2=Agpaitic
TTITLE3=Tragic Wisdom
TTITLE4=Debts of Honor
TTITLE5=Arfvedsonite
EXTD=YEAR: 2014
EXTT0=
EXTT1=
EXTT2=
EXTT3=
EXTT4=
EXTT5=
PLAYORDER=
